<?xml version="1.0" encoding="UTF-8"?>
<!DOCTYPE svg PUBLIC "-//W3C//DTD SVG 1.1//EN" "http://www.w3.org/Graphics/SVG/1.1/DTD/svg11.dtd">
<svg xmlns="http://www.w3.org/2000/svg" version="1.1" width="102px" height="102px" style="shape-rendering:geometricPrecision; text-rendering:geometricPrecision; image-rendering:optimizeQuality; fill-rule:evenodd; clip-rule:evenodd" xmlns:xlink="http://www.w3.org/1999/xlink">
<g><path style="opacity:0.576" fill="#7d8992" d="M 69.5,21.5 C 69.6882,19.8967 69.1882,18.5634 68,17.5C 67.6667,18.1667 67.3333,18.8333 67,19.5C 66.0138,18.8288 64.8471,18.8288 63.5,19.5C 64.7058,16.8609 66.7058,16.0276 69.5,17C 70.8009,18.6155 70.8009,20.1155 69.5,21.5 Z"/></g>
<g><path style="opacity:1" fill="#3b4e5f" d="M 69.5,21.5 C 67.2854,22.2679 64.9521,22.9346 62.5,23.5C 61.1667,23.5 60.5,22.8333 60.5,21.5C 60.9731,20.0937 61.9731,19.427 63.5,19.5C 64.8471,18.8288 66.0138,18.8288 67,19.5C 67.3333,18.8333 67.6667,18.1667 68,17.5C 69.1882,18.5634 69.6882,19.8967 69.5,21.5 Z"/></g>
<g><path style="opacity:0.914" fill="#5a6a77" d="M 39.5,17.5 C 42.8553,18.8552 45.1886,21.1886 46.5,24.5C 46.5654,24.9382 46.3988,25.2716 46,25.5C 45.6667,24.8333 45.3333,24.1667 45,23.5C 44.8784,25.437 44.045,26.7703 42.5,27.5C 43.881,25.7259 43.5477,24.2259 41.5,23C 39.1902,22.5034 36.8568,22.3367 34.5,22.5C 33.5002,17.4909 35.1668,15.8243 39.5,17.5 Z"/></g>
<g><path style="opacity:1" fill="#102d43" d="M 39.5,17.5 C 39.5743,19.4109 40.5743,20.5776 42.5,21C 40.0982,21.8141 37.7649,21.6474 35.5,20.5C 36.5884,19.0656 37.9217,18.0656 39.5,17.5 Z"/></g>
<g><path style="opacity:0.906" fill="#3c5262" d="M 56.5,23.5 C 56.7058,25.5492 57.5391,25.8825 59,24.5C 59.4828,25.448 59.6495,26.448 59.5,27.5C 58.7321,28.2625 58.2321,29.2625 58,30.5C 57.3918,28.9336 56.5585,27.6002 55.5,26.5C 55.6309,25.6236 55.2975,24.9569 54.5,24.5C 49.3106,25.8194 44.9772,27.4861 41.5,29.5C 41.8333,28.8333 42.1667,28.1667 42.5,27.5C 44.045,26.7703 44.8784,25.437 45,23.5C 45.3333,24.1667 45.6667,24.8333 46,25.5C 46.3988,25.2716 46.5654,24.9382 46.5,24.5C 49.7553,24.9864 52.422,23.9864 54.5,21.5C 55.5223,21.8555 56.189,22.5222 56.5,23.5 Z"/></g>
<g><path style="opacity:0.953" fill="#61747f" d="M 60.5,21.5 C 60.5,22.8333 61.1667,23.5 62.5,23.5C 62.0472,24.4584 61.3805,25.2917 60.5,26C 62.5389,27.9263 64.2055,30.093 65.5,32.5C 63.5891,32.4257 62.4224,31.4257 62,29.5C 61.7679,30.7375 61.2679,31.7375 60.5,32.5C 60.634,30.7085 60.3007,29.0418 59.5,27.5C 59.6495,26.448 59.4828,25.448 59,24.5C 57.5391,25.8825 56.7058,25.5492 56.5,23.5C 58.0618,23.2671 59.3951,22.6005 60.5,21.5 Z"/></g>
<g><path style="opacity:1" fill="#93ccc7" d="M 55.5,26.5 C 53.1877,27.3195 50.8543,28.1529 48.5,29C 48.8333,29.3333 49.1667,29.6667 49.5,30C 46.854,30.4974 44.1873,30.6641 41.5,30.5C 41.5,30.1667 41.5,29.8333 41.5,29.5C 44.9772,27.4861 49.3106,25.8194 54.5,24.5C 55.2975,24.9569 55.6309,25.6236 55.5,26.5 Z"/></g>
<g><path style="opacity:0.969" fill="#8a97a0" d="M 42.5,27.5 C 42.1667,28.1667 41.8333,28.8333 41.5,29.5C 40.8333,30.5 40.1667,31.5 39.5,32.5C 38.259,29.7041 39.259,28.0374 42.5,27.5 Z"/></g>
<g><path style="opacity:1" fill="#253a4b" d="M 41.5,29.5 C 41.5,29.8333 41.5,30.1667 41.5,30.5C 43.3885,31.322 45.3885,32.1553 47.5,33C 51.9166,32.9034 56.25,33.0701 60.5,33.5C 60.5,33.8333 60.5,34.1667 60.5,34.5C 57.1326,34.4571 53.7992,34.7904 50.5,35.5C 48.3069,35.2814 46.3069,34.6148 44.5,33.5C 43.7494,32.4265 42.7494,32.2599 41.5,33C 40.3636,34.1451 39.3636,35.3117 38.5,36.5C 38.0623,35.4937 37.3957,35.4937 36.5,36.5C 36.7376,34.5956 37.7376,33.2623 39.5,32.5C 40.1667,31.5 40.8333,30.5 41.5,29.5 Z"/></g>
<g><path style="opacity:1" fill="#29b6ab" d="M 55.5,26.5 C 56.5585,27.6002 57.3918,28.9336 58,30.5C 58.2321,29.2625 58.7321,28.2625 59.5,27.5C 60.3007,29.0418 60.634,30.7085 60.5,32.5C 60.5,32.8333 60.5,33.1667 60.5,33.5C 56.25,33.0701 51.9166,32.9034 47.5,33C 45.3885,32.1553 43.3885,31.322 41.5,30.5C 44.1873,30.6641 46.854,30.4974 49.5,30C 49.1667,29.6667 48.8333,29.3333 48.5,29C 50.8543,28.1529 53.1877,27.3195 55.5,26.5 Z"/></g>
<g><path style="opacity:0.937" fill="#4f5968" d="M 65.5,32.5 C 68.1119,34.0522 69.4452,36.3855 69.5,39.5C 68.5,38.1667 67.5,38.1667 66.5,39.5C 65.2524,37.3509 63.7524,35.3509 62,33.5C 61.6174,34.056 61.1174,34.3893 60.5,34.5C 60.5,34.1667 60.5,33.8333 60.5,33.5C 60.5,33.1667 60.5,32.8333 60.5,32.5C 61.2679,31.7375 61.7679,30.7375 62,29.5C 62.4224,31.4257 63.5891,32.4257 65.5,32.5 Z"/></g>
<g><path style="opacity:1" fill="#e89839" d="M 44.5,33.5 C 46.3069,34.6148 48.3069,35.2814 50.5,35.5C 53.7992,34.7904 57.1326,34.4571 60.5,34.5C 61.1174,34.3893 61.6174,34.056 62,33.5C 63.7524,35.3509 65.2524,37.3509 66.5,39.5C 62.4862,39.3345 58.4862,39.5012 54.5,40C 53.6828,42.3725 52.3495,42.8725 50.5,41.5C 50.3893,40.8826 50.056,40.3826 49.5,40C 46.1832,39.5017 42.8499,39.335 39.5,39.5C 39.9175,38.7784 40.5842,38.2784 41.5,38C 40.5128,35.4478 41.5128,33.9478 44.5,33.5 Z"/></g>
<g><path style="opacity:0.204" fill="#8c99a1" d="M 84.5,38.5 C 80.3881,37.1908 76.3881,37.5241 72.5,39.5C 74.3069,37.555 76.6402,36.555 79.5,36.5C 81.5566,36.4357 83.2233,37.1024 84.5,38.5 Z"/></g>
<g><path style="opacity:1" fill="#dcceb9" d="M 44.5,33.5 C 41.5128,33.9478 40.5128,35.4478 41.5,38C 40.5842,38.2784 39.9175,38.7784 39.5,39.5C 37.2043,39.1959 36.871,38.1959 38.5,36.5C 39.3636,35.3117 40.3636,34.1451 41.5,33C 42.7494,32.2599 43.7494,32.4265 44.5,33.5 Z"/></g>
<g><path style="opacity:1" fill="#253b50" d="M 84.5,38.5 C 86.2624,39.2623 87.2624,40.5956 87.5,42.5C 87.8468,45.3409 87.5135,47.3409 86.5,48.5C 86.7845,46.5853 86.4511,44.9187 85.5,43.5C 85.1667,42.8333 84.8333,42.1667 84.5,41.5C 81.8632,39.5726 78.8632,39.0726 75.5,40C 73.6763,40.66 72.343,41.8267 71.5,43.5C 70.8333,43.8333 70.1667,44.1667 69.5,44.5C 69.5,42.8333 69.5,41.1667 69.5,39.5C 70.5,39.5 71.5,39.5 72.5,39.5C 76.3881,37.5241 80.3881,37.1908 84.5,38.5 Z"/></g>
<g><path style="opacity:1" fill="#75838f" d="M 22.5,37.5 C 26.3467,36.087 30.0134,36.7537 33.5,39.5C 34.735,38.6602 35.735,37.6602 36.5,36.5C 36.6495,37.552 36.4828,38.552 36,39.5C 34.3775,40.0989 32.8775,40.7656 31.5,41.5C 30.2905,41.0679 29.2905,40.4013 28.5,39.5C 28.9382,39.5654 29.2716,39.3988 29.5,39C 27.3225,37.7978 24.9892,37.2978 22.5,37.5 Z"/></g>
<g><path style="opacity:1" fill="#082941" d="M 38.5,36.5 C 36.871,38.1959 37.2043,39.1959 39.5,39.5C 42.8499,39.335 46.1832,39.5017 49.5,40C 50.056,40.3826 50.3893,40.8826 50.5,41.5C 50.5,42.8333 50.5,44.1667 50.5,45.5C 50.5,46.5 50.5,47.5 50.5,48.5C 49.8333,48.5 49.5,48.1667 49.5,47.5C 49.5,46.1667 49.5,44.8333 49.5,43.5C 49.5858,42.5041 49.2524,41.6708 48.5,41C 45.1667,40.3333 41.8333,40.3333 38.5,41C 36.4468,42.6779 36.1134,44.5112 37.5,46.5C 37.5,47.1667 37.5,47.8333 37.5,48.5C 37.5,49.5 37.5,50.5 37.5,51.5C 37.1667,51.5 36.8333,51.5 36.5,51.5C 35.9396,49.1992 35.4396,46.8659 35,44.5C 34.6174,43.944 34.1174,43.6107 33.5,43.5C 33.1667,42.5 32.5,41.8333 31.5,41.5C 32.8775,40.7656 34.3775,40.0989 36,39.5C 36.4828,38.552 36.6495,37.552 36.5,36.5C 37.3957,35.4937 38.0623,35.4937 38.5,36.5 Z"/></g>
<g><path style="opacity:1" fill="#3acabc" d="M 84.5,41.5 C 84.8333,42.1667 85.1667,42.8333 85.5,43.5C 85.5,43.8333 85.5,44.1667 85.5,44.5C 83.5328,44.7394 81.6995,44.4061 80,43.5C 80.5589,45.6382 80.3922,47.6382 79.5,49.5C 79.1667,47.5 78.8333,45.5 78.5,43.5C 74.0193,42.9634 72.686,44.6301 74.5,48.5C 72.0202,49.242 69.6869,50.242 67.5,51.5C 68.5664,49.2986 69.233,46.9653 69.5,44.5C 70.1667,44.1667 70.8333,43.8333 71.5,43.5C 73.6704,42.2515 76.0037,41.2515 78.5,40.5C 80.1871,40.7605 81.6871,41.4272 83,42.5C 83.3826,41.944 83.8826,41.6107 84.5,41.5 Z"/></g>
<g><path style="opacity:1" fill="#7ad2c8" d="M 28.5,39.5 C 29.2905,40.4013 30.2905,41.0679 31.5,41.5C 32.5,41.8333 33.1667,42.5 33.5,43.5C 31.901,43.2322 30.5676,43.5655 29.5,44.5C 27.9582,43.6993 26.2915,43.366 24.5,43.5C 24.0831,42.8761 23.4164,42.5427 22.5,42.5C 20.712,43.437 19.3786,44.7703 18.5,46.5C 19.024,40.3233 22.3573,37.9899 28.5,39.5 Z"/></g>
<g><path style="opacity:1" fill="#b5dbd7" d="M 84.5,41.5 C 83.8826,41.6107 83.3826,41.944 83,42.5C 81.6871,41.4272 80.1871,40.7605 78.5,40.5C 76.0037,41.2515 73.6704,42.2515 71.5,43.5C 72.343,41.8267 73.6763,40.66 75.5,40C 78.8632,39.0726 81.8632,39.5726 84.5,41.5 Z"/></g>
<g><path style="opacity:1" fill="#3a4f61" d="M 22.5,37.5 C 24.9892,37.2978 27.3225,37.7978 29.5,39C 29.2716,39.3988 28.9382,39.5654 28.5,39.5C 22.3573,37.9899 19.024,40.3233 18.5,46.5C 18.4326,47.9587 18.7659,49.2921 19.5,50.5C 20.5,51.8333 21.5,53.1667 22.5,54.5C 22.0618,54.4346 21.7284,54.6012 21.5,55C 23.0931,55.9487 24.4264,57.1154 25.5,58.5C 21.5713,57.5692 18.9047,55.2359 17.5,51.5C 17.3259,49.139 16.9926,46.8056 16.5,44.5C 16.4098,40.3355 18.4098,38.0021 22.5,37.5 Z"/></g>
<g><path style="opacity:1" fill="#d3aa80" d="M 49.5,43.5 C 44.1707,39.8825 41.504,41.2158 41.5,47.5C 40.5655,46.4324 40.2322,45.099 40.5,43.5C 37.2819,43.6509 36.9485,44.4842 39.5,46C 38.9056,46.4643 38.2389,46.631 37.5,46.5C 36.1134,44.5112 36.4468,42.6779 38.5,41C 41.8333,40.3333 45.1667,40.3333 48.5,41C 49.2524,41.6708 49.5858,42.5041 49.5,43.5 Z"/></g>
<g><path style="opacity:1" fill="#e8e3db" d="M 49.5,43.5 C 49.5,44.8333 49.5,46.1667 49.5,47.5C 48.7638,49.2294 47.4305,50.2294 45.5,50.5C 43.5956,50.2624 42.2623,49.2624 41.5,47.5C 41.504,41.2158 44.1707,39.8825 49.5,43.5 Z"/></g>
<g><path style="opacity:1" fill="#2eccbc" d="M 24.5,43.5 C 24.1936,46.3854 24.5269,49.0521 25.5,51.5C 25.5,52.1667 25.1667,52.5 24.5,52.5C 22.9505,51.5592 21.2838,50.8925 19.5,50.5C 18.7659,49.2921 18.4326,47.9587 18.5,46.5C 19.3786,44.7703 20.712,43.437 22.5,42.5C 23.4164,42.5427 24.0831,42.8761 24.5,43.5 Z"/></g>
<g><path style="opacity:1" fill="#1f364b" d="M 44.5,42.5 C 49.229,43.9264 49.5624,45.9264 45.5,48.5C 44.09,48.1322 43.09,47.2989 42.5,46C 43.9733,45.2904 44.6399,44.1238 44.5,42.5 Z"/></g>
<g><path style="opacity:1" fill="#d8f1ee" d="M 79.5,49.5 C 79.1583,50.3382 78.4916,50.6716 77.5,50.5C 76.2223,50.2178 75.2223,49.5511 74.5,48.5C 72.686,44.6301 74.0193,42.9634 78.5,43.5C 78.8333,45.5 79.1667,47.5 79.5,49.5 Z"/></g>
<g><path style="opacity:1" fill="#26ccbc" d="M 85.5,44.5 C 84.7539,48.3226 82.7539,51.3226 79.5,53.5C 78.4489,52.7777 77.7822,51.7777 77.5,50.5C 78.4916,50.6716 79.1583,50.3382 79.5,49.5C 80.3922,47.6382 80.5589,45.6382 80,43.5C 81.6995,44.4061 83.5328,44.7394 85.5,44.5 Z"/></g>
<g><path style="opacity:0.843" fill="#9ca7b0" d="M 16.5,44.5 C 16.9926,46.8056 17.3259,49.139 17.5,51.5C 15.6883,49.2866 15.3549,46.9533 16.5,44.5 Z"/></g>
<g><path style="opacity:1" fill="#e1973d" d="M 41.5,47.5 C 42.2623,49.2624 43.5956,50.2624 45.5,50.5C 42.5494,51.7288 39.8827,51.0622 37.5,48.5C 37.5,47.8333 37.5,47.1667 37.5,46.5C 38.2389,46.631 38.9056,46.4643 39.5,46C 36.9485,44.4842 37.2819,43.6509 40.5,43.5C 40.2322,45.099 40.5655,46.4324 41.5,47.5 Z"/></g>
<g><path style="opacity:1" fill="#d1eeec" d="M 24.5,43.5 C 26.2915,43.366 27.9582,43.6993 29.5,44.5C 29.7989,46.604 29.4656,48.604 28.5,50.5C 27.5832,51.1272 26.5832,51.4606 25.5,51.5C 24.5269,49.0521 24.1936,46.3854 24.5,43.5 Z"/></g>
<g><path style="opacity:1" fill="#35c9bb" d="M 33.5,43.5 C 34.1174,43.6107 34.6174,43.944 35,44.5C 35.4396,46.8659 35.9396,49.1992 36.5,51.5C 34.7866,49.805 32.7866,48.9717 30.5,49C 34.1528,51.6484 33.4861,53.4817 28.5,54.5C 26.847,54.3404 25.5137,53.6737 24.5,52.5C 25.1667,52.5 25.5,52.1667 25.5,51.5C 26.5832,51.4606 27.5832,51.1272 28.5,50.5C 29.4656,48.604 29.7989,46.604 29.5,44.5C 30.5676,43.5655 31.901,43.2322 33.5,43.5 Z"/></g>
<g><path style="opacity:1" fill="#15293e" d="M 69.5,39.5 C 69.5,41.1667 69.5,42.8333 69.5,44.5C 69.233,46.9653 68.5664,49.2986 67.5,51.5C 67.1667,52.1667 66.8333,52.8333 66.5,53.5C 65.5,54.1667 64.5,54.8333 63.5,55.5C 62.8333,55.5 62.1667,55.5 61.5,55.5C 62.4293,54.6851 63.4293,53.8518 64.5,53C 63.552,52.5172 62.552,52.3505 61.5,52.5C 56.0238,52.6935 53.0238,50.0268 52.5,44.5C 51.8165,44.8627 51.1499,45.1961 50.5,45.5C 50.5,44.1667 50.5,42.8333 50.5,41.5C 52.3495,42.8725 53.6828,42.3725 54.5,40C 58.4862,39.5012 62.4862,39.3345 66.5,39.5C 67.5,38.1667 68.5,38.1667 69.5,39.5 Z"/></g>
<g><path style="opacity:1" fill="#efe8de" d="M 62.5,41.5 C 65.4526,46.919 63.7859,49.5856 57.5,49.5C 55.8958,48.713 55.2291,47.3797 55.5,45.5C 56.4446,42.0132 58.7779,40.6799 62.5,41.5 Z"/></g>
<g><path style="opacity:1" fill="#1e354c" d="M 58.5,42.5 C 61.9656,43.109 62.9656,44.9423 61.5,48C 59.8876,48.7203 58.3876,48.5536 57,47.5C 57.4866,45.9562 57.9866,44.2895 58.5,42.5 Z"/></g>
<g><path style="opacity:1" fill="#e9983a" d="M 62.5,41.5 C 63.8333,41.5 65.1667,41.5 66.5,41.5C 68.6565,47.1753 66.6565,50.5086 60.5,51.5C 58.9623,51.5466 57.9623,50.8799 57.5,49.5C 63.7859,49.5856 65.4526,46.919 62.5,41.5 Z"/></g>
<g><path style="opacity:1" fill="#a27f56" d="M 66.5,41.5 C 65.1667,41.5 63.8333,41.5 62.5,41.5C 58.7779,40.6799 56.4446,42.0132 55.5,45.5C 54.2006,43.8466 54.5339,42.3466 56.5,41C 60.0267,40.1925 63.3601,40.3592 66.5,41.5 Z"/></g>
<g><path style="opacity:1" fill="#1b2b3e" d="M 49.5,47.5 C 49.5,48.1667 49.8333,48.5 50.5,48.5C 49.4154,50.5869 47.7488,51.9202 45.5,52.5C 39.4024,52.1018 39.0691,53.4351 44.5,56.5C 44.1583,57.3382 43.4916,57.6716 42.5,57.5C 41.1667,56.1667 39.8333,54.8333 38.5,53.5C 38.1667,52.8333 37.8333,52.1667 37.5,51.5C 37.5,50.5 37.5,49.5 37.5,48.5C 39.8827,51.0622 42.5494,51.7288 45.5,50.5C 47.4305,50.2294 48.7638,49.2294 49.5,47.5 Z"/></g>
<g><path style="opacity:1" fill="#73d5ca" d="M 74.5,48.5 C 75.2223,49.5511 76.2223,50.2178 77.5,50.5C 77.7822,51.7777 78.4489,52.7777 79.5,53.5C 76.082,55.8473 72.7487,55.5139 69.5,52.5C 68.5832,53.1272 67.5832,53.4606 66.5,53.5C 66.8333,52.8333 67.1667,52.1667 67.5,51.5C 69.6869,50.242 72.0202,49.242 74.5,48.5 Z"/></g>
<g><path style="opacity:1" fill="#405768" d="M 87.5,42.5 C 89.3043,47.4795 88.3043,51.9795 84.5,56C 83.255,56.7914 81.9217,57.2914 80.5,57.5C 80.1667,57.5 79.8333,57.5 79.5,57.5C 79.5,56.8333 79.1667,56.5 78.5,56.5C 82.1667,54.8333 84.8333,52.1667 86.5,48.5C 87.5135,47.3409 87.8468,45.3409 87.5,42.5 Z"/></g>
<g><path style="opacity:1" fill="#f2a137" d="M 61.5,52.5 C 60.653,53.9663 59.3197,54.7996 57.5,55C 53.0442,55.8673 48.7109,55.5339 44.5,54C 45.056,53.6174 45.3893,53.1174 45.5,52.5C 47.7488,51.9202 49.4154,50.5869 50.5,48.5C 50.5,47.5 50.5,46.5 50.5,45.5C 51.1499,45.1961 51.8165,44.8627 52.5,44.5C 53.0238,50.0268 56.0238,52.6935 61.5,52.5 Z"/></g>
<g><path style="opacity:1" fill="#66503f" d="M 50.5,51.5 C 54.5878,51.2184 55.0878,51.8851 52,53.5C 50.9701,53.1639 50.4701,52.4972 50.5,51.5 Z"/></g>
<g><path style="opacity:1" fill="#2db2a9" d="M 85.5,43.5 C 86.4511,44.9187 86.7845,46.5853 86.5,48.5C 84.8333,52.1667 82.1667,54.8333 78.5,56.5C 73.3826,57.4646 68.3826,57.798 63.5,57.5C 62.537,57.0302 62.537,56.3635 63.5,55.5C 64.5,54.8333 65.5,54.1667 66.5,53.5C 67.5832,53.4606 68.5832,53.1272 69.5,52.5C 72.7487,55.5139 76.082,55.8473 79.5,53.5C 82.7539,51.3226 84.7539,48.3226 85.5,44.5C 85.5,44.1667 85.5,43.8333 85.5,43.5 Z"/></g>
<g><path style="opacity:1" fill="#27ada5" d="M 19.5,50.5 C 21.2838,50.8925 22.9505,51.5592 24.5,52.5C 25.5137,53.6737 26.847,54.3404 28.5,54.5C 28.56,55.0431 28.8933,55.3764 29.5,55.5C 32.2992,53.2301 35.2992,52.5634 38.5,53.5C 39.8333,54.8333 41.1667,56.1667 42.5,57.5C 35.5019,58.1964 28.8352,57.1964 22.5,54.5C 21.5,53.1667 20.5,51.8333 19.5,50.5 Z"/></g>
<g><path style="opacity:1" fill="#b6e4df" d="M 36.5,51.5 C 36.8333,51.5 37.1667,51.5 37.5,51.5C 37.8333,52.1667 38.1667,52.8333 38.5,53.5C 35.2992,52.5634 32.2992,53.2301 29.5,55.5C 28.8933,55.3764 28.56,55.0431 28.5,54.5C 33.4861,53.4817 34.1528,51.6484 30.5,49C 32.7866,48.9717 34.7866,49.805 36.5,51.5 Z"/></g>
<g><path style="opacity:1" fill="#cc6f21" d="M 45.5,52.5 C 45.3893,53.1174 45.056,53.6174 44.5,54C 48.7109,55.5339 53.0442,55.8673 57.5,55C 59.3197,54.7996 60.653,53.9663 61.5,52.5C 62.552,52.3505 63.552,52.5172 64.5,53C 63.4293,53.8518 62.4293,54.6851 61.5,55.5C 56.0301,59.0219 50.3635,59.3552 44.5,56.5C 39.0691,53.4351 39.4024,52.1018 45.5,52.5 Z"/></g>
<g><path style="opacity:1" fill="#0b2941" d="M 61.5,55.5 C 62.1667,55.5 62.8333,55.5 63.5,55.5C 62.537,56.3635 62.537,57.0302 63.5,57.5C 68.3826,57.798 73.3826,57.4646 78.5,56.5C 79.1667,56.5 79.5,56.8333 79.5,57.5C 76.4969,58.17 75.8303,59.8367 77.5,62.5C 76.2223,62.2178 75.2223,61.5511 74.5,60.5C 71.4115,59.2154 68.0781,58.5488 64.5,58.5C 64.5,59.8333 64.5,61.1667 64.5,62.5C 66.4147,62.2155 68.0813,62.5489 69.5,63.5C 69.5,63.8333 69.5,64.1667 69.5,64.5C 67.5,64.1667 65.5,63.8333 63.5,63.5C 63.5,64.5 63.5,65.5 63.5,66.5C 62.8333,66.5 62.5,66.1667 62.5,65.5C 62.8515,62.9272 62.3515,60.5938 61,58.5C 60.5026,61.146 60.3359,63.8127 60.5,66.5C 60.5,67.1667 60.1667,67.5 59.5,67.5C 59.38,66.4138 58.7133,65.7472 57.5,65.5C 56.1508,65.8457 54.8175,66.179 53.5,66.5C 53.5,65.1667 53.5,63.8333 53.5,62.5C 54.5,62.5 55.5,62.5 56.5,62.5C 58.7279,61.6782 59.3946,60.3448 58.5,58.5C 56.9745,58.9943 55.6412,59.661 54.5,60.5C 52.9582,59.6993 51.2915,59.366 49.5,59.5C 48.4168,59.4606 47.4168,59.1272 46.5,58.5C 45.7025,58.9569 45.3691,59.6236 45.5,60.5C 45.5,62.1667 45.5,63.8333 45.5,65.5C 44.1667,66.8333 44.1667,68.1667 45.5,69.5C 45.5,70.1667 45.5,70.8333 45.5,71.5C 44.596,72.209 44.2627,73.209 44.5,74.5C 43.5,73.8333 42.5,73.1667 41.5,72.5C 40.2223,72.2178 39.2223,71.5511 38.5,70.5C 38.5,69.8333 38.1667,69.5 37.5,69.5C 37.5,68.8333 37.8333,68.5 38.5,68.5C 39.7206,69.0283 40.8873,69.695 42,70.5C 42.977,68.26 43.477,65.9267 43.5,63.5C 44.8434,61.3166 44.51,59.3166 42.5,57.5C 43.4916,57.6716 44.1583,57.3382 44.5,56.5C 50.3635,59.3552 56.0301,59.0219 61.5,55.5 Z"/></g>
<g><path style="opacity:1" fill="#d5dadc" d="M 49.5,59.5 C 48.9383,63.0684 47.605,63.4017 45.5,60.5C 45.3691,59.6236 45.7025,58.9569 46.5,58.5C 47.4168,59.1272 48.4168,59.4606 49.5,59.5 Z"/></g>
<g><path style="opacity:1" fill="#c8ced0" d="M 56.5,62.5 C 56.1667,61.5 55.5,60.8333 54.5,60.5C 55.6412,59.661 56.9745,58.9943 58.5,58.5C 59.3946,60.3448 58.7279,61.6782 56.5,62.5 Z"/></g>
<g><path style="opacity:1" fill="#81d1c8" d="M 36.5,67.5 C 35.4168,67.5394 34.4168,67.8728 33.5,68.5C 32.3333,66.8333 31.1667,65.1667 30,63.5C 29.2917,64.3805 28.4584,65.0472 27.5,65.5C 28.075,63.5887 29.075,61.922 30.5,60.5C 33.6462,58.4798 36.9795,58.1465 40.5,59.5C 38.6982,61.9583 37.3649,64.6249 36.5,67.5 Z"/></g>
<g><path style="opacity:1" fill="#20394d" d="M 22.5,54.5 C 28.8352,57.1964 35.5019,58.1964 42.5,57.5C 44.51,59.3166 44.8434,61.3166 43.5,63.5C 43.6567,62.1266 43.49,60.7932 43,59.5C 40.4289,61.9756 38.9289,64.9756 38.5,68.5C 37.8333,68.5 37.5,68.8333 37.5,69.5C 36.6618,69.1583 36.3284,68.4916 36.5,67.5C 37.3649,64.6249 38.6982,61.9583 40.5,59.5C 36.9795,58.1465 33.6462,58.4798 30.5,60.5C 29.2617,60.19 29.2617,59.69 30.5,59C 29.2068,58.51 27.8734,58.3433 26.5,58.5C 26.1667,58.5 25.8333,58.5 25.5,58.5C 24.4264,57.1154 23.0931,55.9487 21.5,55C 21.7284,54.6012 22.0618,54.4346 22.5,54.5 Z"/></g>
<g><path style="opacity:1" fill="#dfe5e8" d="M 43.5,63.5 C 43.477,65.9267 42.977,68.26 42,70.5C 40.8873,69.695 39.7206,69.0283 38.5,68.5C 38.9289,64.9756 40.4289,61.9756 43,59.5C 43.49,60.7932 43.6567,62.1266 43.5,63.5 Z"/></g>
<g><path style="opacity:0.89" fill="#909ca5" d="M 79.5,57.5 C 79.8333,57.5 80.1667,57.5 80.5,57.5C 76.9576,58.8652 76.7909,60.5318 80,62.5C 80.5,64 81,65.5 81.5,67C 81.4301,67.7648 81.0967,68.2648 80.5,68.5C 80.2451,66.0326 79.2451,64.0326 77.5,62.5C 75.8303,59.8367 76.4969,58.17 79.5,57.5 Z"/></g>
<g><path style="opacity:1" fill="#2a4658" d="M 49.5,59.5 C 51.2915,59.366 52.9582,59.6993 54.5,60.5C 55.5,60.8333 56.1667,61.5 56.5,62.5C 55.5,62.5 54.5,62.5 53.5,62.5C 49.5,63.8333 49.5,65.1667 53.5,66.5C 52.2579,68.8918 50.9245,68.7251 49.5,66C 48.2068,65.51 46.8734,65.3433 45.5,65.5C 45.5,63.8333 45.5,62.1667 45.5,60.5C 47.605,63.4017 48.9383,63.0684 49.5,59.5 Z"/></g>
<g><path style="opacity:1" fill="#a1b7b9" d="M 74.5,60.5 C 74.5,61.5 74.5,62.5 74.5,63.5C 72.8333,63.5 71.1667,63.5 69.5,63.5C 68.0813,62.5489 66.4147,62.2155 64.5,62.5C 64.5,61.1667 64.5,59.8333 64.5,58.5C 68.0781,58.5488 71.4115,59.2154 74.5,60.5 Z"/></g>
<g><path style="opacity:1" fill="#9ba7b1" d="M 62.5,65.5 C 61.8333,65.8333 61.1667,66.1667 60.5,66.5C 60.3359,63.8127 60.5026,61.146 61,58.5C 62.3515,60.5938 62.8515,62.9272 62.5,65.5 Z"/></g>
<g><path style="opacity:1" fill="#526372" d="M 26.5,58.5 C 27.8734,58.3433 29.2068,58.51 30.5,59C 29.2617,59.69 29.2617,60.19 30.5,60.5C 29.075,61.922 28.075,63.5887 27.5,65.5C 26.3143,66.7054 26.3143,68.0387 27.5,69.5C 26.9569,69.56 26.6236,69.8933 26.5,70.5C 27.1925,71.5178 27.8592,72.5178 28.5,73.5C 25.5641,72.4847 24.2307,70.318 24.5,67C 24.4076,64.1861 25.4076,61.8527 27.5,60C 26.944,59.6174 26.6107,59.1174 26.5,58.5 Z"/></g>
<g><path style="opacity:1" fill="#1b364b" d="M 74.5,60.5 C 75.2223,61.5511 76.2223,62.2178 77.5,62.5C 79.2451,64.0326 80.2451,66.0326 80.5,68.5C 80.7709,70.3797 80.1042,71.713 78.5,72.5C 78.1667,72.5 77.8333,72.5 77.5,72.5C 77.5,71.8333 77.1667,71.5 76.5,71.5C 79.0629,68.7465 79.0629,66.0799 76.5,63.5C 75.5481,65.0453 75.2148,66.712 75.5,68.5C 74.5489,67.0813 74.2155,65.4147 74.5,63.5C 74.5,62.5 74.5,61.5 74.5,60.5 Z"/></g>
<g><path style="opacity:1" fill="#2da09e" d="M 53.5,62.5 C 53.5,63.8333 53.5,65.1667 53.5,66.5C 49.5,65.1667 49.5,63.8333 53.5,62.5 Z"/></g>
<g><path style="opacity:1" fill="#05263d" d="M 69.5,64.5 C 69.5,64.1667 69.5,63.8333 69.5,63.5C 71.1667,63.5 72.8333,63.5 74.5,63.5C 74.2155,65.4147 74.5489,67.0813 75.5,68.5C 73.8834,71.0764 74.2167,72.0764 76.5,71.5C 77.1667,71.5 77.5,71.8333 77.5,72.5C 75.3621,72.981 73.6955,74.1476 72.5,76C 71.2068,76.49 69.8734,76.6567 68.5,76.5C 68.5,75.8333 68.8333,75.5 69.5,75.5C 71.9689,74.3933 72.9689,72.3933 72.5,69.5C 73.4511,68.0813 73.7845,66.4147 73.5,64.5C 72.1667,64.5 70.8333,64.5 69.5,64.5 Z"/></g>
<g><path style="opacity:1" fill="#e4993a" d="M 45.5,65.5 C 46.8734,65.3433 48.2068,65.51 49.5,66C 50.9245,68.7251 52.2579,68.8918 53.5,66.5C 54.8175,66.179 56.1508,65.8457 57.5,65.5C 58.7133,65.7472 59.38,66.4138 59.5,67.5C 59.5,68.1667 59.5,68.8333 59.5,69.5C 54.8333,70.8333 50.1667,70.8333 45.5,69.5C 44.1667,68.1667 44.1667,66.8333 45.5,65.5 Z"/></g>
<g><path style="opacity:1" fill="#30b1a8" d="M 36.5,67.5 C 36.3284,68.4916 36.6618,69.1583 37.5,69.5C 38.1667,69.5 38.5,69.8333 38.5,70.5C 37.7784,70.9175 37.2784,71.5842 37,72.5C 35.87,71.8864 34.5366,71.8864 33,72.5C 30.6013,72.3868 28.7679,71.3868 27.5,69.5C 26.3143,68.0387 26.3143,66.7054 27.5,65.5C 28.4584,65.0472 29.2917,64.3805 30,63.5C 31.1667,65.1667 32.3333,66.8333 33.5,68.5C 34.4168,67.8728 35.4168,67.5394 36.5,67.5 Z"/></g>
<g><path style="opacity:1" fill="#30a7a1" d="M 76.5,71.5 C 74.2167,72.0764 73.8834,71.0764 75.5,68.5C 75.2148,66.712 75.5481,65.0453 76.5,63.5C 79.0629,66.0799 79.0629,68.7465 76.5,71.5 Z"/></g>
<g><path style="opacity:1" fill="#273a4d" d="M 45.5,69.5 C 50.1667,70.8333 54.8333,70.8333 59.5,69.5C 59.2671,71.0618 58.6005,72.3951 57.5,73.5C 53.9359,74.4227 50.2693,74.756 46.5,74.5C 46.0618,74.5654 45.7284,74.3988 45.5,74C 47.9856,73.2949 47.9856,72.4616 45.5,71.5C 45.5,70.8333 45.5,70.1667 45.5,69.5 Z"/></g>
<g><path style="opacity:1" fill="#a5afb5" d="M 69.5,64.5 C 70.8333,64.5 72.1667,64.5 73.5,64.5C 73.7845,66.4147 73.4511,68.0813 72.5,69.5C 71.209,69.2627 70.209,69.596 69.5,70.5C 68.5655,71.5676 68.2322,72.901 68.5,74.5C 66.5,74.5 64.5,74.5 62.5,74.5C 62.5,73.1667 62.5,71.8333 62.5,70.5C 64.7159,70.7254 66.3826,69.8921 67.5,68C 66.2234,67.8726 65.0567,68.3726 64,69.5C 62.3167,68.8235 62.1501,67.8235 63.5,66.5C 63.5,65.5 63.5,64.5 63.5,63.5C 65.5,63.8333 67.5,64.1667 69.5,64.5 Z"/></g>
<g><path style="opacity:1" fill="#ad6935" d="M 69.5,70.5 C 70.209,69.596 71.209,69.2627 72.5,69.5C 72.9689,72.3933 71.9689,74.3933 69.5,75.5C 69.8222,73.5248 69.8222,71.8582 69.5,70.5 Z"/></g>
<g><path style="opacity:1" fill="#1c3348" d="M 62.5,65.5 C 62.5,66.1667 62.8333,66.5 63.5,66.5C 62.1501,67.8235 62.3167,68.8235 64,69.5C 65.0567,68.3726 66.2234,67.8726 67.5,68C 66.3826,69.8921 64.7159,70.7254 62.5,70.5C 62.5,71.8333 62.5,73.1667 62.5,74.5C 64.5,74.5 66.5,74.5 68.5,74.5C 68.2322,72.901 68.5655,71.5676 69.5,70.5C 69.8222,71.8582 69.8222,73.5248 69.5,75.5C 68.8333,75.5 68.5,75.8333 68.5,76.5C 65.592,75.4309 62.592,75.2642 59.5,76C 58.944,76.3826 58.6107,76.8826 58.5,77.5C 58.1583,78.3382 57.4916,78.6716 56.5,78.5C 56.8333,77.8333 57.1667,77.1667 57.5,76.5C 57.9528,75.5416 58.6195,74.7083 59.5,74C 58.9056,73.5357 58.2389,73.369 57.5,73.5C 58.6005,72.3951 59.2671,71.0618 59.5,69.5C 59.5,68.8333 59.5,68.1667 59.5,67.5C 60.1667,67.5 60.5,67.1667 60.5,66.5C 61.1667,66.1667 61.8333,65.8333 62.5,65.5 Z"/></g>
<g><path style="opacity:1" fill="#344d62" d="M 27.5,69.5 C 28.7679,71.3868 30.6013,72.3868 33,72.5C 34.5366,71.8864 35.87,71.8864 37,72.5C 37.2784,71.5842 37.7784,70.9175 38.5,70.5C 39.2223,71.5511 40.2223,72.2178 41.5,72.5C 41.5,73.5 41.5,74.5 41.5,75.5C 41.2648,76.0967 40.7648,76.4301 40,76.5C 36.1405,75.137 32.3072,74.137 28.5,73.5C 27.8592,72.5178 27.1925,71.5178 26.5,70.5C 26.6236,69.8933 26.9569,69.56 27.5,69.5 Z"/></g>
<g><path style="opacity:0.506" fill="#8c99a2" d="M 41.5,72.5 C 42.5,73.1667 43.5,73.8333 44.5,74.5C 45.973,76.3947 47.6397,78.0613 49.5,79.5C 46.5881,78.5711 43.9214,77.2378 41.5,75.5C 41.5,74.5 41.5,73.5 41.5,72.5 Z"/></g>
<g><path style="opacity:1" fill="#c26b24" d="M 57.5,73.5 C 58.2389,73.369 58.9056,73.5357 59.5,74C 58.6195,74.7083 57.9528,75.5416 57.5,76.5C 53.2614,78.2955 49.5947,77.6288 46.5,74.5C 50.2693,74.756 53.9359,74.4227 57.5,73.5 Z"/></g>
<g><path style="opacity:0.325" fill="#8a959f" d="M 77.5,72.5 C 77.8333,72.5 78.1667,72.5 78.5,72.5C 76.7096,73.7608 75.0429,75.2608 73.5,77C 68.4542,76.7085 63.4542,76.8752 58.5,77.5C 58.6107,76.8826 58.944,76.3826 59.5,76C 62.592,75.2642 65.592,75.4309 68.5,76.5C 69.8734,76.6567 71.2068,76.49 72.5,76C 73.6955,74.1476 75.3621,72.981 77.5,72.5 Z"/></g>
<g><path style="opacity:1" fill="#1c3145" d="M 45.5,71.5 C 47.9856,72.4616 47.9856,73.2949 45.5,74C 45.7284,74.3988 46.0618,74.5654 46.5,74.5C 49.5947,77.6288 53.2614,78.2955 57.5,76.5C 57.1667,77.1667 56.8333,77.8333 56.5,78.5C 55.8333,79.8333 54.8333,80.8333 53.5,81.5C 51.9382,81.2671 50.6049,80.6005 49.5,79.5C 47.6397,78.0613 45.973,76.3947 44.5,74.5C 44.2627,73.209 44.596,72.209 45.5,71.5 Z"/></g>
<g><path style="opacity:1" fill="#6bd4ce" d="M 35.5,83.5 C 47.3282,83.0227 58.9949,83.5227 70.5,85C 58.1712,85.4999 45.8378,85.6665 33.5,85.5C 32.6236,85.6309 31.9569,85.2975 31.5,84.5C 32.6888,83.5713 34.0222,83.238 35.5,83.5 Z"/></g>
<g><path style="opacity:0.553" fill="#91d9d5" d="M 49.5,79.5 C 50.6049,80.6005 51.9382,81.2671 53.5,81.5C 58.9851,82.3272 64.6518,82.8272 70.5,83C 74.9316,83.6228 75.2649,84.6228 71.5,86C 58.6599,86.8267 45.9933,86.66 33.5,85.5C 45.8378,85.6665 58.1712,85.4999 70.5,85C 58.9949,83.5227 47.3282,83.0227 35.5,83.5C 40.3165,82.6739 45.3165,82.1739 50.5,82C 49.7476,81.3292 49.4142,80.4959 49.5,79.5 Z"/></g>
</svg>
